<svg width="24" height="24" viewBox="0 0 24 24" fill="none" xmlns="http://www.w3.org/2000/svg">
<path fill-rule="evenodd" clip-rule="evenodd" d="M4.48456 4.28993C4.1984 4.57641 3.93602 4.92781 3.76636 5.23381C3.55328 5.6078 3.39598 6.01792 3.30114 6.44431L3.25179 6.70194C2.47403 10.6479 3.46178 14.1779 6.72244 17.4153C8.86183 19.5394 10.4841 20.4123 12.7054 20.731C13.0654 20.7826 13.4414 20.8214 13.8887 20.8545L14.8085 20.9104C15.3218 20.937 16.177 20.9796 16.469 20.9962C16.8535 21.0181 17.3622 20.9446 18.0459 20.7844L18.1495 20.7541C18.7463 20.5432 19.2913 20.2012 19.7476 19.7444C21.4175 18.0727 21.4175 15.3623 19.7476 13.6906L19.5988 13.5486C17.9846 12.0787 15.5161 12.0653 13.8868 13.5155L13.6937 13.6903L12.6613 14.7238C12.4351 14.9503 12.0788 14.981 11.8173 14.7965C11.2731 14.4128 9.82742 12.9978 9.47451 12.5155C9.28266 12.2534 9.31052 11.8903 9.54011 11.6606L10.4497 10.7506L10.5275 10.6873L10.643 10.5802C10.6638 10.5602 10.685 10.5393 10.7061 10.5183C12.4241 8.79836 12.4241 6.00984 10.7061 4.28993C8.98805 2.57002 6.20259 2.57002 4.48456 4.28993ZM5.88004 5.68694C6.82736 4.73858 8.36327 4.73858 9.31059 5.68694C10.2579 6.6353 10.2579 8.1729 9.31059 9.12126C9.25198 9.17993 9.19093 9.23522 9.1276 9.28704L8.14498 10.2632C7.22656 11.1823 7.11513 12.6345 7.88252 13.6831C8.36278 14.3394 9.96259 15.9052 10.6807 16.4116L10.8192 16.503C11.8499 17.1374 13.1911 16.9874 14.0568 16.1208L15.0112 15.1651L15.0243 15.1584L15.1162 15.0684C16.0169 14.1869 17.4602 14.1947 18.3521 15.0877C19.2513 15.9878 19.2513 17.4472 18.3521 18.3473L18.1987 18.4879C18.0402 18.6207 17.8665 18.7301 17.6814 18.8147L17.5321 18.8748L17.2784 18.9307L17.0105 18.9809C16.809 19.0146 16.663 19.0284 16.5811 19.0237L14.5773 18.9196L14.0464 18.8851L13.5859 18.8464C13.3701 18.8256 13.1735 18.8023 12.9854 18.7753C11.2071 18.5202 9.96435 17.8515 8.11215 16.0125C5.42085 13.3404 4.58666 10.5763 5.13656 7.36266L5.19408 7.05025C5.24621 6.73027 5.34276 6.45456 5.48632 6.20252C5.57373 6.04499 5.72574 5.84142 5.88004 5.68694Z" fill="white"/>
</svg>
